<?xml version="1.0" encoding="UTF-8"?>
<!--Generator: Apple Native CoreSVG 341-->
<!DOCTYPE svg
PUBLIC "-//W3C//DTD SVG 1.1//EN"
       "http://www.w3.org/Graphics/SVG/1.1/DTD/svg11.dtd">
<svg version="1.1" xmlns="http://www.w3.org/2000/svg" xmlns:xlink="http://www.w3.org/1999/xlink" viewBox="0 0 23.7539 23.332">
 <g>
  <rect height="23.332" opacity="0" width="23.7539" x="0" y="0"/>
  <path d="M22.0312 1.40625C23.2266 2.60156 23.4023 4.26562 23.4023 6.26953L23.4023 17.0742C23.4023 19.0781 23.2266 20.7539 22.0312 21.9492C20.8359 23.1445 19.1484 23.332 17.1445 23.332L6.24609 23.332C4.25391 23.332 2.56641 23.1445 1.37109 21.9492C0.175781 20.7539 0 19.0781 0 17.0742L0 6.24609C0 4.27734 0.175781 2.60156 1.37109 1.40625C2.56641 0.210938 4.25391 0.0234375 6.22266 0.0234375L17.1445 0.0234375C19.1484 0.0234375 20.8359 0.210938 22.0312 1.40625ZM6.31641 9.62109C6 9.62109 5.64844 9.24609 5.0625 9.24609C4.41797 9.24609 3.90234 9.50391 3.5625 9.94922C3.15234 10.4531 2.98828 11.0625 2.98828 11.707C2.98828 12.7617 3.44531 13.9922 4.13672 14.7656C4.51172 15.1641 4.78125 15.375 5.10938 15.375C5.60156 15.375 5.87109 15.0117 6.46875 15.0117C6.72656 15.0117 6.94922 15.1172 7.10156 15.1641C7.34766 15.2461 7.51172 15.3516 7.79297 15.3516C8.09766 15.3516 8.33203 15.2344 8.49609 15.0938C9.01172 14.5664 9.43359 13.8398 9.60938 13.2188C9.14062 13.0078 8.84766 12.7148 8.67188 12.2812C8.49609 11.8008 8.51953 11.3203 8.67188 10.9102C8.76562 10.6289 8.94141 10.2891 9.41016 10.0195C9.05859 9.49219 8.50781 9.23438 7.85156 9.23438C7.11328 9.23438 6.69141 9.62109 6.31641 9.62109ZM11.6602 7.80469L11.6602 9.23438L10.793 9.23438L10.793 10.1953L11.6602 10.1953L11.6602 13.6992C11.6602 14.918 12.1406 15.3516 13.3711 15.3516C13.6406 15.3516 13.9453 15.3164 14.0508 15.3047L14.0508 14.2852C13.9922 14.3203 13.7695 14.3203 13.6406 14.3203C13.1484 14.3203 12.9141 14.1094 12.9141 13.5586L12.9141 10.1953L14.0742 10.1953L14.0742 9.23438L12.9141 9.23438L12.9141 7.80469ZM14.6367 9.23438L16.8633 15.3047L18.1758 15.3047L20.3672 9.23438L19.0078 9.23438L17.5312 14.1094L15.9609 9.23438ZM6.26953 9.03516C7.25391 9.14062 8.01562 8.07422 7.94531 7.20703C6.97266 7.25391 6.24609 8.12109 6.26953 9.03516Z" fill="white" fill-opacity="0.85"/>
 </g>
</svg>
