<?xml version="1.0" encoding="UTF-8"?>
<!--Generator: Apple Native CoreSVG 341-->
<!DOCTYPE svg
PUBLIC "-//W3C//DTD SVG 1.1//EN"
       "http://www.w3.org/Graphics/SVG/1.1/DTD/svg11.dtd">
<svg version="1.1" xmlns="http://www.w3.org/2000/svg" xmlns:xlink="http://www.w3.org/1999/xlink" viewBox="0 0 37.3242 31.3711">
 <g>
  <rect height="31.3711" opacity="0" width="37.3242" x="0" y="0"/>
  <path d="M20.0273 28.6758C20.0273 29.543 19.3477 30.2109 18.4805 30.2109C17.625 30.2109 16.9453 29.5312 16.9453 28.6758C16.9453 27.832 17.6367 27.1406 18.4805 27.1406C19.3359 27.1406 20.0273 27.8203 20.0273 28.6758ZM14.4258 25.4531C14.4258 26.3203 13.7578 26.9883 12.8906 26.9883C12.0352 26.9883 11.3438 26.3086 11.3438 25.4531C11.3438 24.6094 12.0469 23.9062 12.8906 23.9062C13.7461 23.9062 14.4258 24.5977 14.4258 25.4531ZM8.83594 22.1719C8.83594 23.0508 8.15625 23.7188 7.28906 23.7188C6.43359 23.7188 5.75391 23.0391 5.75391 22.1719C5.75391 21.3398 6.45703 20.6367 7.28906 20.6367C8.14453 20.6367 8.83594 21.3281 8.83594 22.1719ZM8.83594 15.6797C8.83594 16.5469 8.15625 17.2148 7.28906 17.2148C6.43359 17.2148 5.75391 16.5352 5.75391 15.6797C5.75391 14.8359 6.44531 14.1445 7.28906 14.1445C8.14453 14.1445 8.83594 14.8242 8.83594 15.6797ZM31.2188 15.6797C31.2188 16.0704 31.0745 16.4245 30.8352 16.6928C30.3508 16.399 29.7961 16.2422 29.2383 16.2422C28.9196 16.2422 28.6038 16.2912 28.3027 16.3874C28.1958 16.1778 28.1367 15.9376 28.1367 15.6797C28.1367 14.8242 28.8164 14.1445 29.6719 14.1445C30.5156 14.1445 31.2188 14.8359 31.2188 15.6797ZM8.83594 9.17578C8.83594 10.043 8.15625 10.7227 7.28906 10.7227C6.43359 10.7227 5.75391 10.0312 5.75391 9.17578C5.75391 8.33203 6.44531 7.64062 7.28906 7.64062C8.14453 7.64062 8.83594 8.32031 8.83594 9.17578ZM31.1719 9.17578C31.1719 10.043 30.5039 10.7227 29.625 10.7227C28.7812 10.7227 28.0898 10.0312 28.0898 9.17578C28.0898 8.34375 28.793 7.64062 29.625 7.64062C30.4922 7.64062 31.1719 8.32031 31.1719 9.17578ZM14.4258 5.90625C14.4258 6.77344 13.7578 7.45312 12.8906 7.45312C12.0352 7.45312 11.3438 6.76172 11.3438 5.90625C11.3438 5.0625 12.0469 4.37109 12.8906 4.37109C13.7461 4.37109 14.4258 5.05078 14.4258 5.90625ZM25.6172 5.90625C25.6172 6.77344 24.9492 7.45312 24.082 7.45312C23.2266 7.45312 22.5352 6.76172 22.5352 5.90625C22.5352 5.0625 23.2383 4.37109 24.082 4.37109C24.9375 4.37109 25.6172 5.05078 25.6172 5.90625ZM20.0273 2.68359C20.0273 3.55078 19.3477 4.21875 18.4805 4.21875C17.625 4.21875 16.9453 3.53906 16.9453 2.68359C16.9453 1.83984 17.6484 1.13672 18.4805 1.13672C19.3359 1.13672 20.0273 1.82812 20.0273 2.68359Z" fill="white" fill-opacity="0.425"/>
  <path d="M20.4492 22.1719C20.4492 23.2734 19.582 24.1523 18.4805 24.1523C17.4023 24.1523 16.5117 23.2617 16.5117 22.1719C16.5117 21.1055 17.4141 20.2031 18.4805 20.2031C19.5586 20.2031 20.4492 21.0938 20.4492 22.1719ZM14.8594 18.9375C14.8594 20.0391 13.9805 20.9062 12.8906 20.9062C11.8008 20.9062 10.9219 20.0156 10.9219 18.9375C10.9219 17.8594 11.8125 16.957 12.8906 16.957C13.9688 16.957 14.8594 17.8477 14.8594 18.9375ZM26.0351 18.7039L24.9068 20.72C24.656 20.84 24.376 20.9062 24.082 20.9062C22.9805 20.9062 22.1133 20.0391 22.1133 18.9375C22.1133 17.8477 22.9922 16.957 24.082 16.957C25.0703 16.957 25.9176 17.7319 26.0351 18.7039ZM14.8594 12.4219C14.8594 13.5234 13.9922 14.3906 12.8906 14.3906C11.8008 14.3906 10.9219 13.5117 10.9219 12.4219C10.9219 11.3555 11.8242 10.4531 12.8906 10.4531C13.9688 10.4531 14.8594 11.332 14.8594 12.4219ZM26.0508 12.4219C26.0508 13.5234 25.1836 14.3906 24.082 14.3906C22.9922 14.3906 22.1133 13.5117 22.1133 12.4219C22.1133 11.3555 23.0156 10.4531 24.082 10.4531C25.1602 10.4531 26.0508 11.332 26.0508 12.4219ZM20.4492 9.17578C20.4492 10.2773 19.582 11.1562 18.4805 11.1562C17.4023 11.1562 16.5117 10.2656 16.5117 9.17578C16.5117 8.10938 17.4141 7.20703 18.4805 7.20703C19.5703 7.20703 20.4492 8.09766 20.4492 9.17578Z" fill="white" fill-opacity="0.425"/>
  <path d="M20.7422 15.6797C20.7422 16.9336 19.7344 17.9297 18.4805 17.9297C17.2383 17.9297 16.2305 16.9219 16.2305 15.6797C16.2305 14.4492 17.2617 13.4297 18.4805 13.4297C19.7227 13.4297 20.7422 14.4375 20.7422 15.6797Z" fill="white" fill-opacity="0.425"/>
  <path d="M30.5625 18.6211L35.5195 27.4805C35.6719 27.7266 35.7422 27.9727 35.7422 28.2305C35.7422 29.1094 35.1328 29.7773 34.1836 29.7773L24.2812 29.7773C23.332 29.7773 22.7461 29.1094 22.7461 28.2305C22.7461 27.9727 22.8164 27.7266 22.957 27.4805L27.9023 18.6211C28.1836 18.1055 28.7227 17.8359 29.2383 17.8359C29.7539 17.8359 30.2695 18.1055 30.5625 18.6211ZM28.2656 27.0703C28.2656 27.5977 28.7109 28.0312 29.2383 28.0312C29.7656 28.0312 30.2109 27.5977 30.2109 27.0703C30.2109 26.543 29.7773 26.0977 29.2383 26.0977C28.7227 26.0977 28.2656 26.543 28.2656 27.0703ZM28.4531 21.375L28.5469 24.6328C28.5586 25.0195 28.8398 25.3008 29.2383 25.3008C29.6367 25.3008 29.918 25.0195 29.9297 24.6328L30.0234 21.375C30.0352 20.9062 29.7188 20.5781 29.2383 20.5781C28.7695 20.5781 28.4414 20.9062 28.4531 21.375Z" fill="white" fill-opacity="0.85"/>
 </g>
</svg>
