<?xml version="1.0" encoding="UTF-8"?>
<!--Generator: Apple Native CoreSVG 341-->
<!DOCTYPE svg
PUBLIC "-//W3C//DTD SVG 1.1//EN"
       "http://www.w3.org/Graphics/SVG/1.1/DTD/svg11.dtd">
<svg version="1.1" xmlns="http://www.w3.org/2000/svg" xmlns:xlink="http://www.w3.org/1999/xlink" viewBox="0 0 18.1172 22.1367">
 <g>
  <rect height="22.1367" opacity="0" width="18.1172" x="0" y="0"/>
  <path d="M8.88281 22.1367C9.17578 22.1367 9.44531 22.0195 9.66797 21.7852L17.4492 13.9922C17.6719 13.7578 17.7656 13.5117 17.7656 13.2305C17.7656 12.6562 17.3438 12.2109 16.7578 12.2109C16.4766 12.2109 16.207 12.3047 16.0195 12.4922L13.3477 15.1172L8.87109 20.0156L4.41797 15.1172L1.74609 12.4922C1.57031 12.3047 1.28906 12.2109 1.00781 12.2109C0.421875 12.2109 0 12.6562 0 13.2305C0 13.5117 0.105469 13.7578 0.328125 13.9922L8.09766 21.7852C8.32031 22.0195 8.58984 22.1367 8.88281 22.1367ZM8.88281 20.8828C9.43359 20.8828 9.80859 20.5078 9.80859 19.957L9.92578 16.4648L9.92578 1.03125C9.92578 0.421875 9.49219 0 8.88281 0C8.27344 0 7.83984 0.421875 7.83984 1.03125L7.83984 16.4648L7.95703 19.957C7.95703 20.5078 8.33203 20.8828 8.88281 20.8828Z" fill="white" fill-opacity="0.85"/>
 </g>
</svg>
