<?xml version="1.0" encoding="UTF-8"?>
<!--Generator: Apple Native CoreSVG 341-->
<!DOCTYPE svg
PUBLIC "-//W3C//DTD SVG 1.1//EN"
       "http://www.w3.org/Graphics/SVG/1.1/DTD/svg11.dtd">
<svg version="1.1" xmlns="http://www.w3.org/2000/svg" xmlns:xlink="http://www.w3.org/1999/xlink" viewBox="0 0 18.1172 22.1367">
 <g>
  <rect height="22.1367" opacity="0" width="18.1172" x="0" y="0"/>
  <path d="M1.00781 9.92578C1.28906 9.92578 1.57031 9.83203 1.74609 9.64453L4.41797 7.01953L8.87109 2.12109L13.3477 7.01953L16.0195 9.64453C16.207 9.83203 16.4766 9.92578 16.7578 9.92578C17.3438 9.92578 17.7656 9.48047 17.7656 8.90625C17.7656 8.625 17.6719 8.37891 17.4492 8.14453L9.66797 0.351562C9.44531 0.117188 9.17578 0 8.88281 0C8.58984 0 8.32031 0.117188 8.09766 0.351562L0.328125 8.14453C0.105469 8.37891 0 8.625 0 8.90625C0 9.48047 0.421875 9.92578 1.00781 9.92578ZM8.88281 22.1367C9.49219 22.1367 9.92578 21.7148 9.92578 21.1055L9.92578 5.67188L9.80859 2.17969C9.80859 1.62891 9.43359 1.25391 8.88281 1.25391C8.33203 1.25391 7.95703 1.62891 7.95703 2.17969L7.83984 5.67188L7.83984 21.1055C7.83984 21.7148 8.27344 22.1367 8.88281 22.1367Z" fill="white" fill-opacity="0.85"/>
 </g>
</svg>
