<?xml version="1.0" encoding="UTF-8"?>
<!--Generator: Apple Native CoreSVG 341-->
<!DOCTYPE svg
PUBLIC "-//W3C//DTD SVG 1.1//EN"
       "http://www.w3.org/Graphics/SVG/1.1/DTD/svg11.dtd">
<svg version="1.1" xmlns="http://www.w3.org/2000/svg" xmlns:xlink="http://www.w3.org/1999/xlink" viewBox="0 0 21.1344 23.6842">
 <g>
  <rect height="23.6842" opacity="0" width="21.1344" x="0" y="0"/>
  <path d="M9.85195 12.133L9.80944 12.8353L6.28398 15.1761L5.0072 15.9134L5.01836 19.1487C5.01836 19.5941 4.69023 19.9456 4.2332 19.9339C3.78789 19.9456 3.47148 19.5941 3.4832 19.1487L3.46662 16.803L1.29179 18.0589C0.834762 18.3167 0.37773 18.1995 0.131637 17.7425C-0.126176 17.2972 0.00273026 16.8636 0.448043 16.5941L2.62236 15.3436L0.588668 14.1566C0.213668 13.9456 0.0730428 13.5003 0.295699 13.1136C0.506637 12.7034 0.998824 12.6097 1.36211 12.8323L4.16512 14.4563L5.44023 13.723L9.23374 11.8262ZM17.2879 4.51202L17.3045 6.8762L19.491 5.61359C19.9246 5.35577 20.3816 5.46124 20.6277 5.90655C20.909 6.35187 20.7801 6.8089 20.323 7.06671L18.1474 8.32816L20.1824 9.51593C20.5574 9.72687 20.698 10.1722 20.4871 10.5472C20.2644 10.9573 19.784 11.0628 19.409 10.8401L16.6165 9.21582L15.3309 9.96124L11.5561 11.8297L10.9109 11.5071L10.9548 10.8338L14.4988 8.4964L15.7639 7.76585L15.7527 4.51202C15.7527 4.07843 16.0809 3.72687 16.5496 3.73859C16.9832 3.72687 17.2996 4.07843 17.2879 4.51202Z" fill="white" fill-opacity="0.85"/>
  <path d="M15.3426 13.723L16.6058 14.4512L19.409 12.8206C19.784 12.598 20.2644 12.6917 20.4871 13.1019C20.698 13.4886 20.5574 13.9339 20.1824 14.1448L18.1412 15.3363L20.323 16.5941C20.7684 16.8519 20.909 17.2972 20.6512 17.7308C20.4051 18.1995 19.9363 18.305 19.491 18.0589L17.3044 16.7992L17.2879 19.137C17.2996 19.5823 16.9832 19.9339 16.5496 19.9222C16.0809 19.9339 15.7527 19.5823 15.7527 19.137L15.7639 15.9116L14.4871 15.1761L10.9536 12.8204L10.8894 11.8362L10.9109 11.5071ZM5.01836 4.52374L5.00726 7.75372L6.27226 8.48468L9.8084 10.82L9.86992 11.8362L9.85195 12.133L5.45195 9.94952L4.18477 9.21652L1.36211 10.8519C0.998824 11.0745 0.506637 10.9691 0.295699 10.5589C0.0730428 10.1839 0.213668 9.73859 0.588668 9.52765L2.64637 8.32662L0.448043 7.05499C-0.00898849 6.8089-0.126176 6.34015 0.143355 5.90655C0.412887 5.46124 0.84648 5.35577 1.30351 5.61359L3.46672 6.86355L3.4832 4.52374C3.47148 4.09015 3.78789 3.73859 4.2332 3.7503C4.69023 3.73859 5.01836 4.09015 5.01836 4.52374Z" fill="white" fill-opacity="0.85"/>
  <path d="M10.3738 23.6722C10.8894 23.6839 11.2293 23.3558 11.2293 22.8167L11.2293 17.0511L10.8894 11.8362L11.2293 6.6214L11.2293 0.844054C11.2293 0.31671 10.8894-0.011415 10.3738 0.000303796C9.86992 0.000303796 9.55351 0.328429 9.55351 0.844054L9.55351 6.60968L9.86992 11.8362L9.55351 17.0628L9.55351 22.8167C9.55351 23.3441 9.86992 23.6722 10.3738 23.6722ZM14.323 2.44952C14.1004 2.0628 13.6434 1.96905 13.2684 2.19171L10.3855 3.84405L7.50273 2.19171C7.12773 1.96905 6.6707 2.0628 6.44804 2.44952C6.20195 2.84796 6.36601 3.30499 6.72929 3.52765L9.69414 5.21515C9.90507 5.33234 10.1394 5.39093 10.3855 5.39093C10.6199 5.39093 10.8777 5.33234 11.0769 5.21515L14.0418 3.52765C14.4168 3.30499 14.5691 2.84796 14.323 2.44952ZM6.44804 21.223C6.6707 21.6097 7.12773 21.6917 7.50273 21.4808L10.3855 19.8284L13.2684 21.4808C13.6434 21.6917 14.1004 21.6097 14.323 21.223C14.5691 20.8245 14.4168 20.3675 14.0418 20.1448L11.0769 18.4573C10.866 18.3401 10.6316 18.2816 10.3855 18.2816C10.1512 18.2816 9.89336 18.3401 9.69414 18.4573L6.72929 20.1448C6.36601 20.3675 6.20195 20.8245 6.44804 21.223Z" fill="white" fill-opacity="0.85"/>
 </g>
</svg>
