<?xml version="1.0" encoding="UTF-8"?>
<!--Generator: Apple Native CoreSVG 341-->
<!DOCTYPE svg
PUBLIC "-//W3C//DTD SVG 1.1//EN"
       "http://www.w3.org/Graphics/SVG/1.1/DTD/svg11.dtd">
<svg version="1.1" xmlns="http://www.w3.org/2000/svg" xmlns:xlink="http://www.w3.org/1999/xlink" viewBox="0 0 29.8945 25.6992">
 <g>
  <rect height="25.6992" opacity="0" width="29.8945" x="0" y="0"/>
  <path d="M3.35156 1.06641L4.33594 1.06641L4.33594 2.95313L3.35156 2.95312C3.04688 3.48047 2.46094 3.83203 1.81641 3.83203C0.820312 3.83203 0 3.01172 0 2.00391C0 1.00781 0.820312 0.1875 1.81641 0.1875C2.46094 0.1875 3.04688 0.550781 3.35156 1.06641ZM29.543 2.00391C29.543 3.01172 28.7227 3.83203 27.7266 3.83203C27.082 3.83203 26.4961 3.48047 26.1914 2.95312L25.207 2.95313L25.207 1.06641L26.1914 1.06641C26.4961 0.550781 27.082 0.1875 27.7266 0.1875C28.7227 0.1875 29.543 1.00781 29.543 2.00391ZM21.5039 2.95313L8.03906 2.95313L8.03906 1.06641L21.5039 1.06641Z" fill="white" fill-opacity="0.425"/>
  <path d="M5.16797 24.8086L7.20703 24.8086C7.6875 24.8086 8.03906 24.457 8.03906 23.9648L8.03906 0.855469C8.03906 0.363281 7.6875 0 7.20703 0L5.16797 0C4.6875 0 4.33594 0.363281 4.33594 0.855469L4.33594 23.9648C4.33594 24.457 4.6875 24.8086 5.16797 24.8086ZM22.3359 24.8086L24.375 24.8086C24.8555 24.8086 25.207 24.457 25.207 23.9648L25.207 0.855469C25.207 0.363281 24.8555 0 24.375 0L22.3359 0C21.8555 0 21.5039 0.363281 21.5039 0.855469L21.5039 23.9648C21.5039 24.457 21.8555 24.8086 22.3359 24.8086Z" fill="white" fill-opacity="0.85"/>
 </g>
</svg>
