<?xml version="1.0" encoding="UTF-8"?>
<!--Generator: Apple Native CoreSVG 341-->
<!DOCTYPE svg
PUBLIC "-//W3C//DTD SVG 1.1//EN"
       "http://www.w3.org/Graphics/SVG/1.1/DTD/svg11.dtd">
<svg version="1.1" xmlns="http://www.w3.org/2000/svg" xmlns:xlink="http://www.w3.org/1999/xlink" viewBox="0 0 25.4062 25.0664">
 <g>
  <rect height="25.0664" opacity="0" width="25.4062" x="0" y="0"/>
  <path d="M8.49609 12.8789C9.39844 11.2969 10.418 9.82031 11.5898 8.49609L11.5898 3.26953C11.5898 1.125 10.5 0 8.42578 0C4.65234 0 0.832031 3.41016 0.832031 6.63281C0.832031 9.62109 3.62109 11.0508 8.49609 12.8789ZM12.1758 8.49609C13.7578 9.39844 15.2344 10.418 16.5586 11.5898L21.7852 11.5898C23.9297 11.5898 25.0547 10.5 25.0547 8.42578C25.0547 4.66406 21.6445 0.832031 18.4219 0.832031C15.4336 0.832031 13.9922 3.62109 12.1758 8.49609ZM16.5586 12.1758C15.6562 13.7578 14.625 15.2344 13.4648 16.5586L13.4648 21.7852C13.4648 23.9297 14.5547 25.0547 16.6172 25.0547C20.3906 25.0547 24.2227 21.6445 24.2227 18.4219C24.2227 15.4336 21.4336 13.9922 16.5586 12.1758ZM12.8789 16.5586C11.2852 15.6562 9.82031 14.625 8.49609 13.4648L3.25781 13.4648C1.125 13.4648 0 14.5547 0 16.6172C0 20.3906 3.41016 24.2227 6.63281 24.2227C9.62109 24.2227 11.0508 21.4336 12.8789 16.5586ZM12.5273 16.8984C14.9414 16.8984 16.8984 14.9414 16.8984 12.5273C16.8984 10.1133 14.9414 8.15625 12.5273 8.15625C10.1016 8.15625 8.15625 10.1133 8.15625 12.5273C8.15625 14.9414 10.1016 16.8984 12.5273 16.8984ZM12.5273 15.2461C11.0273 15.2461 9.80859 14.0273 9.80859 12.5273C9.80859 11.0273 11.0273 9.80859 12.5273 9.80859C14.0273 9.80859 15.2461 11.0273 15.2461 12.5273C15.2461 14.0273 14.0273 15.2461 12.5273 15.2461ZM12.5273 14.1328C13.418 14.1328 14.1211 13.418 14.1211 12.5273C14.1211 11.6367 13.418 10.9219 12.5273 10.9219C11.6367 10.9219 10.9219 11.6367 10.9219 12.5273C10.9219 13.418 11.6367 14.1328 12.5273 14.1328Z" fill="white" fill-opacity="0.85"/>
 </g>
</svg>
