<?xml version="1.0" encoding="UTF-8"?>
<!--Generator: Apple Native CoreSVG 341-->
<!DOCTYPE svg
PUBLIC "-//W3C//DTD SVG 1.1//EN"
       "http://www.w3.org/Graphics/SVG/1.1/DTD/svg11.dtd">
<svg version="1.1" xmlns="http://www.w3.org/2000/svg" xmlns:xlink="http://www.w3.org/1999/xlink" viewBox="0 0 30.0938 25.3008">
 <g>
  <rect height="25.3008" opacity="0" width="30.0938" x="0" y="0"/>
  <path d="M16.7578 18.7382C14.0189 20.0473 11.5801 22.0898 8.03906 22.0898C6.53906 22.0898 5.16797 21.7266 3.84375 20.9531C3.19922 20.5898 3.17578 19.9453 3.45703 19.5234C3.69141 19.1602 4.17188 18.9727 4.66406 19.2539C5.85938 19.9453 6.87891 20.2031 8.03906 20.2031C11.5552 20.2031 13.9952 17.8651 17.1058 16.5916C16.8968 17.2704 16.7578 17.9939 16.7578 18.7382Z" fill="white" fill-opacity="0.425"/>
  <path d="M19.5525 11.5191C15.4844 12.2422 12.73 15.8086 8.05078 15.8086C6.55078 15.8086 5.17969 15.4336 3.85547 14.6719C3.21094 14.2969 3.1875 13.6641 3.46875 13.2422C3.70312 12.8789 4.18359 12.6914 4.67578 12.9727C5.87109 13.6523 6.89062 13.9219 8.05078 13.9219C12.773 13.9219 15.554 9.70493 20.6239 9.51154Z" fill="white" fill-opacity="0.425"/>
  <path d="M25.1836 4.33594C25.8398 4.72266 25.8633 5.35547 25.5703 5.77734C25.3242 6.12891 24.8555 6.31641 24.3633 6.03516C23.168 5.35547 22.1367 5.09766 20.9883 5.09766C16.0781 5.09766 13.2539 9.51562 8.03906 9.51562C6.53906 9.51562 5.16797 9.15234 3.84375 8.39062C3.19922 8.01562 3.17578 7.38281 3.45703 6.96094C3.69141 6.59766 4.17188 6.41016 4.66406 6.69141C5.85938 7.37109 6.87891 7.62891 8.03906 7.62891C12.8789 7.62891 15.6797 3.21094 20.9883 3.21094C22.4883 3.21094 23.8594 3.57422 25.1836 4.33594Z" fill="white" fill-opacity="0.425"/>
  <path d="M23.4258 23.6953C26.25 23.6953 28.5 21.4922 28.5 18.7383C28.5 17.2148 27.7383 15.7266 27.0938 14.5195L24.4805 9.65625C24.1992 9.12891 23.9414 8.90625 23.4258 8.90625C22.8984 8.90625 22.6523 9.12891 22.3711 9.65625L19.7695 14.5195C19.125 15.7266 18.3633 17.2148 18.3633 18.7383C18.3633 21.4922 20.6133 23.6953 23.4258 23.6953Z" fill="white" fill-opacity="0.85"/>
 </g>
</svg>
