<?xml version="1.0" encoding="UTF-8"?>
<!--Generator: Apple Native CoreSVG 341-->
<!DOCTYPE svg
PUBLIC "-//W3C//DTD SVG 1.1//EN"
       "http://www.w3.org/Graphics/SVG/1.1/DTD/svg11.dtd">
<svg version="1.1" xmlns="http://www.w3.org/2000/svg" xmlns:xlink="http://www.w3.org/1999/xlink" viewBox="0 0 21.9023 22.8164">
 <g>
  <rect height="22.8164" opacity="0" width="21.9023" x="0" y="0"/>
  <path d="M3.98438 5.49609L17.5547 5.49609C16.6992 4.18359 15.7266 2.83594 14.7188 1.47656C13.9688 0.492188 13.5234 0 12.2578 0L9.29297 0C8.02734 0 7.58203 0.492188 6.83203 1.47656C5.8125 2.83594 4.85156 4.18359 3.98438 5.49609ZM10.7812 12.0234C12.1875 12.0234 13.3477 12.9141 13.7578 14.1914L21.5039 14.1914C21.2344 12.2227 20.2383 9.91406 18.7969 7.45312L2.74219 7.45312C1.3125 9.91406 0.316406 12.2227 0.0351562 14.1914L7.79297 14.1914C8.20312 12.9141 9.375 12.0234 10.7812 12.0234ZM10.7812 16.5703C11.5781 16.5703 12.1875 15.9609 12.1875 15.1523C12.1875 14.3672 11.5781 13.7344 10.7812 13.7344C9.98438 13.7344 9.36328 14.3672 9.36328 15.1523C9.36328 15.9609 9.98438 16.5703 10.7812 16.5703ZM7.93359 22.793L13.6055 22.793C18.5508 22.793 21.2227 20.3438 21.5508 16.1484L13.7578 16.1484C13.3594 17.3906 12.1992 18.2812 10.7812 18.2812C9.375 18.2812 8.19141 17.3906 7.79297 16.1484L0 16.1484C0.316406 20.3438 2.98828 22.793 7.93359 22.793Z" fill="white" fill-opacity="0.85"/>
 </g>
</svg>
