<?xml version="1.0" encoding="UTF-8"?>
<!--Generator: Apple Native CoreSVG 341-->
<!DOCTYPE svg
PUBLIC "-//W3C//DTD SVG 1.1//EN"
       "http://www.w3.org/Graphics/SVG/1.1/DTD/svg11.dtd">
<svg version="1.1" xmlns="http://www.w3.org/2000/svg" xmlns:xlink="http://www.w3.org/1999/xlink" viewBox="0 0 16.6406 26.5195">
 <g>
  <rect height="26.5195" opacity="0" width="16.6406" x="0" y="0"/>
  <path d="M0 8.8125L16.2891 8.8125L16.2891 2.44922C16.2891 0.972656 15.3398 0 13.9219 0L2.35547 0C0.949219 0 0 0.972656 0 2.44922ZM3.24609 6.60938C2.90625 6.60938 2.64844 6.36328 2.64844 6.01172L2.64844 3.33984C2.64844 3 2.89453 2.75391 3.24609 2.75391C3.58594 2.75391 3.83203 2.98828 3.83203 3.33984L3.83203 6.01172C3.83203 6.35156 3.59766 6.60938 3.24609 6.60938ZM0 21.8203L16.2891 21.8203L16.2891 10.1836L0 10.1836ZM3.24609 15.7852C2.90625 15.7852 2.64844 15.5508 2.64844 15.1992L2.64844 12.5273C2.64844 12.1875 2.89453 11.9414 3.24609 11.9414C3.58594 11.9414 3.83203 12.1758 3.83203 12.5273L3.83203 15.1992C3.83203 15.5391 3.59766 15.7852 3.24609 15.7852ZM0 23.1914L0 24.0703C0 25.5469 0.949219 26.5195 2.35547 26.5195L13.9219 26.5195C15.3398 26.5195 16.2891 25.5469 16.2891 24.0703L16.2891 23.1914Z" fill="white" fill-opacity="0.85"/>
 </g>
</svg>
