<?xml version="1.0" encoding="UTF-8"?>
<!--Generator: Apple Native CoreSVG 341-->
<!DOCTYPE svg
PUBLIC "-//W3C//DTD SVG 1.1//EN"
       "http://www.w3.org/Graphics/SVG/1.1/DTD/svg11.dtd">
<svg version="1.1" xmlns="http://www.w3.org/2000/svg" xmlns:xlink="http://www.w3.org/1999/xlink" viewBox="0 0 23.6133 20.5898">
 <g>
  <rect height="20.5898" opacity="0" width="23.6133" x="0" y="0"/>
  <path d="M6.75 11.1797L16.5117 11.1797L16.5117 8.49609C16.5117 6.43359 17.8945 4.91016 19.8516 4.91016L19.9805 4.91016L19.9805 2.54297C19.9805 1.00781 18.9844 0 17.5195 0L5.74219 0C4.26562 0 3.26953 1.00781 3.26953 2.54297L3.26953 4.91016L3.39844 4.91016C5.36719 4.91016 6.75 6.43359 6.75 8.49609ZM0 15.6211C0 17.0859 0.972656 18.0586 2.40234 18.0586L20.8594 18.0586C22.2773 18.0586 23.2617 17.0859 23.2617 15.6211L23.2617 8.49609C23.2617 7.04297 22.2773 6.05859 20.8594 6.05859L20.2734 6.05859C18.8555 6.05859 17.8711 7.04297 17.8711 8.49609L17.8711 12.5391L5.37891 12.5391L5.37891 8.49609C5.37891 7.04297 4.40625 6.05859 2.97656 6.05859L2.40234 6.05859C0.972656 6.05859 0 7.04297 0 8.49609ZM4.13672 20.5664L4.875 20.5664C5.50781 20.5664 5.91797 20.168 5.91797 19.5352L5.91797 17.0508L3.10547 17.0508L3.10547 19.5352C3.10547 20.168 3.50391 20.5664 4.13672 20.5664ZM18.3867 20.5664L19.1133 20.5664C19.7461 20.5664 20.1445 20.168 20.1445 19.5352L20.1445 17.0508L17.3438 17.0508L17.3438 19.5352C17.3438 20.168 17.7539 20.5664 18.3867 20.5664Z" fill="white" fill-opacity="0.85"/>
 </g>
</svg>
