<?xml version="1.0" encoding="UTF-8"?>
<!--Generator: Apple Native CoreSVG 341-->
<!DOCTYPE svg
PUBLIC "-//W3C//DTD SVG 1.1//EN"
       "http://www.w3.org/Graphics/SVG/1.1/DTD/svg11.dtd">
<svg version="1.1" xmlns="http://www.w3.org/2000/svg" xmlns:xlink="http://www.w3.org/1999/xlink" viewBox="0 0 28.9805 27.2461">
 <g>
  <rect height="27.2461" opacity="0" width="28.9805" x="0" y="0"/>
  <path d="M4.92188 4.76953L11.6836 4.76953C12.0938 4.76953 12.4219 4.42969 12.4219 4.00781C12.4219 3.58594 12.0938 3.23438 11.6836 3.23438L4.92188 3.23438C4.5 3.23438 4.18359 3.58594 4.18359 4.00781C4.18359 4.42969 4.5 4.76953 4.92188 4.76953ZM0.726562 10.6406L8.75391 10.6406C9.17578 10.6406 9.49219 10.3008 9.49219 9.87891C9.49219 9.45703 9.17578 9.10547 8.75391 9.10547L0.726562 9.10547C0.316406 9.10547 0 9.46875 0 9.87891C0 10.2891 0.316406 10.6406 0.726562 10.6406ZM4.23047 16.5117L8.69531 16.5117C9.10547 16.5117 9.42188 16.1719 9.42188 15.75C9.42188 15.3281 9.10547 14.9766 8.69531 14.9766L4.23047 14.9766C3.80859 14.9766 3.49219 15.3281 3.49219 15.75C3.49219 16.1719 3.80859 16.5117 4.23047 16.5117ZM1.14844 22.3125L7.26562 22.3125C7.67578 22.3125 7.99219 21.9727 7.99219 21.5508C7.99219 21.1289 7.67578 20.7773 7.26562 20.7773L1.14844 20.7773C0.738281 20.7773 0.421875 21.1289 0.421875 21.5508C0.421875 21.9727 0.738281 22.3125 1.14844 22.3125Z" fill="white" fill-opacity="0.425"/>
  <path d="M14.1211 26.332L17.8125 21.9375C18.1758 21.5156 18.2227 21.3984 18.3633 20.9531L18.668 20.0508L16.6875 17.5664L16.0664 20.4141L12.4102 24.7383C11.2383 26.1211 13.1484 27.4805 14.1211 26.332ZM23.1211 25.9688C23.8711 27.5156 26.1445 26.5664 25.3242 24.9023L22.8164 19.8164C22.6289 19.4297 22.3477 19.0195 22.125 18.6914L20.5195 16.418L20.6367 16.0898C21.082 14.8242 21.2227 14.0508 21.3164 12.7852L21.5625 9.23438C21.6797 7.54688 20.6836 6.25781 18.9609 6.25781C17.6602 6.25781 16.7812 6.91406 15.5859 8.08594L13.7109 9.9375C13.0898 10.5469 12.8906 11.0391 12.832 11.8359L12.6094 14.7422C12.5508 15.4688 12.9609 15.9961 13.6406 16.0195C14.3203 16.0664 14.7305 15.668 14.8008 14.8828L15.082 11.6953L15.9844 10.875C16.3125 10.582 16.7461 10.7812 16.7109 11.1094L16.5117 13.8164C16.4062 15.1758 16.7227 15.8203 17.6719 16.9922L20.1562 20.1211C20.4023 20.4375 20.4375 20.5664 20.543 20.7539ZM27.3984 11.0742L24.5508 11.0742L22.6992 9.01172L22.5117 12L23.2617 12.75C23.6719 13.1602 24.0234 13.2773 24.75 13.2773L27.3984 13.2773C28.1367 13.2773 28.6289 12.8555 28.6289 12.1641C28.6289 11.5078 28.125 11.0742 27.3984 11.0742ZM20.332 5.15625C21.7617 5.15625 22.9102 4.00781 22.9102 2.57812C22.9102 1.14844 21.7617 0 20.332 0C18.9023 0 17.7539 1.14844 17.7539 2.57812C17.7539 4.00781 18.9023 5.15625 20.332 5.15625Z" fill="white" fill-opacity="0.85"/>
 </g>
</svg>
