<?xml version="1.0" encoding="UTF-8"?>
<!--Generator: Apple Native CoreSVG 341-->
<!DOCTYPE svg
PUBLIC "-//W3C//DTD SVG 1.1//EN"
       "http://www.w3.org/Graphics/SVG/1.1/DTD/svg11.dtd">
<svg version="1.1" xmlns="http://www.w3.org/2000/svg" xmlns:xlink="http://www.w3.org/1999/xlink" viewBox="0 0 14.6484 19.3945">
 <g>
  <rect height="19.3945" opacity="0" width="14.6484" x="0" y="0"/>
  <path d="M1.55859 19.3828L4.23047 19.3828C5.25 19.3828 5.78906 18.8438 5.78906 17.8125L5.78906 1.55859C5.78906 0.480469 5.25 0 4.23047 0L1.55859 0C0.539062 0 0 0.527344 0 1.55859L0 17.8125C0 18.8438 0.539062 19.3828 1.55859 19.3828ZM10.0781 19.3828L12.7383 19.3828C13.7695 19.3828 14.2969 18.8438 14.2969 17.8125L14.2969 1.55859C14.2969 0.480469 13.7695 0 12.7383 0L10.0781 0C9.04688 0 8.50781 0.527344 8.50781 1.55859L8.50781 17.8125C8.50781 18.8438 9.04688 19.3828 10.0781 19.3828Z" fill="white" fill-opacity="0.85"/>
 </g>
</svg>
