<?xml version="1.0" encoding="UTF-8"?>
<!--Generator: Apple Native CoreSVG 341-->
<!DOCTYPE svg
PUBLIC "-//W3C//DTD SVG 1.1//EN"
       "http://www.w3.org/Graphics/SVG/1.1/DTD/svg11.dtd">
<svg version="1.1" xmlns="http://www.w3.org/2000/svg" xmlns:xlink="http://www.w3.org/1999/xlink" viewBox="0 0 34.5117 17.918">
 <g>
  <rect height="17.918" opacity="0" width="34.5117" x="0" y="0"/>
  <path d="M0 16.2773C0 17.3789 0.632812 17.9062 1.39453 17.9062C1.72266 17.9062 2.07422 17.8008 2.41406 17.6133L14.7188 10.4414C15.6094 9.92578 15.9492 9.53906 15.9492 8.95312C15.9492 8.36719 15.6094 7.98047 14.7188 7.46484L2.41406 0.292969C2.07422 0.09375 1.72266 0 1.39453 0C0.632812 0 0 0.515625 0 1.61719ZM21.4219 17.8359L24.082 17.8359C25.1133 17.8359 25.6406 17.2969 25.6406 16.2656L25.6406 1.62891C25.6406 0.550781 25.1133 0.0585938 24.082 0.0585938L21.4219 0.0585938C20.3906 0.0585938 19.8516 0.597656 19.8516 1.62891L19.8516 16.2656C19.8516 17.2969 20.3906 17.8359 21.4219 17.8359ZM29.9297 17.8359L32.5898 17.8359C33.6211 17.8359 34.1602 17.2969 34.1602 16.2656L34.1602 1.62891C34.1602 0.550781 33.6211 0.0585938 32.5898 0.0585938L29.9297 0.0585938C28.8984 0.0585938 28.3711 0.597656 28.3711 1.62891L28.3711 16.2656C28.3711 17.2969 28.8984 17.8359 29.9297 17.8359Z" fill="white" fill-opacity="0.85"/>
 </g>
</svg>
