<?xml version="1.0" encoding="UTF-8"?>
<!--Generator: Apple Native CoreSVG 341-->
<!DOCTYPE svg
PUBLIC "-//W3C//DTD SVG 1.1//EN"
       "http://www.w3.org/Graphics/SVG/1.1/DTD/svg11.dtd">
<svg version="1.1" xmlns="http://www.w3.org/2000/svg" xmlns:xlink="http://www.w3.org/1999/xlink" viewBox="0 0 24.2578 25.2773">
 <g>
  <rect height="25.2773" opacity="0" width="24.2578" x="0" y="0"/>
  <path d="M11.9531 24.5859C18.5508 24.5859 23.9062 19.2305 23.9062 12.6328C23.9062 8.92969 22.2891 5.89453 20.0273 3.84375C18.9961 2.89453 17.6602 4.32422 18.6914 5.28516C20.6836 7.11328 21.9141 9.71484 21.9141 12.6328C21.9141 18.1406 17.4609 22.5938 11.9531 22.5938C6.44531 22.5938 1.99219 18.1406 1.99219 12.6328C1.99219 9.69141 3.23438 7.10156 5.21484 5.27344C6.25781 4.30078 4.93359 2.92969 3.89062 3.85547C1.60547 5.85938 0 9.03516 0 12.6328C0 19.2305 5.35547 24.5859 11.9531 24.5859ZM11.9531 12.5156C12.5156 12.5156 12.9023 12.1055 12.9023 11.5195L12.9023 0.996094C12.9023 0.398438 12.5156 0 11.9531 0C11.3906 0 11.0156 0.398438 11.0156 0.996094L11.0156 11.5195C11.0156 12.1055 11.3906 12.5156 11.9531 12.5156Z" fill="white" fill-opacity="0.85"/>
 </g>
</svg>
