<?xml version="1.0" encoding="UTF-8"?>
<!--Generator: Apple Native CoreSVG 341-->
<!DOCTYPE svg
PUBLIC "-//W3C//DTD SVG 1.1//EN"
       "http://www.w3.org/Graphics/SVG/1.1/DTD/svg11.dtd">
<svg version="1.1" xmlns="http://www.w3.org/2000/svg" xmlns:xlink="http://www.w3.org/1999/xlink" viewBox="0 0 27.5039 27.1289">
 <g>
  <rect height="27.1289" opacity="0" width="27.5039" x="0" y="0"/>
  <path d="M11.2852 17.3555C12.1641 17.8711 12.8906 18.0469 13.5703 18.0469C14.2617 18.0469 14.9883 17.8711 15.8672 17.3555L20.3497 14.7564L24.2344 17.0039C25.1836 17.5664 25.5469 17.9883 25.5469 18.6328C25.5469 19.2773 25.1836 19.6992 24.2344 20.25L15.0703 25.582C14.4961 25.9102 14.0508 26.0625 13.5703 26.0625C13.1016 26.0625 12.6445 25.9102 12.082 25.582L2.91797 20.25C1.96875 19.6992 1.60547 19.2773 1.60547 18.6328C1.60547 17.9883 1.96875 17.5664 2.91797 17.0039L6.79609 14.7559Z" fill="white" fill-opacity="0.425"/>
  <path d="M13.5703 16.4531C14.0508 16.4531 14.4961 16.3008 15.0703 15.9727L24.2344 10.6523C25.1836 10.0898 25.5469 9.66797 25.5469 9.02344C25.5469 8.37891 25.1836 7.95703 24.2344 7.40625L15.0703 2.07422C14.4961 1.74609 14.0508 1.59375 13.5703 1.59375C13.1016 1.59375 12.6445 1.74609 12.082 2.07422L2.91797 7.40625C1.96875 7.95703 1.60547 8.37891 1.60547 9.02344C1.60547 9.66797 1.96875 10.0898 2.91797 10.6523L12.082 15.9727C12.6445 16.3008 13.1016 16.4531 13.5703 16.4531Z" fill="white" fill-opacity="0.85"/>
 </g>
</svg>
