<?xml version="1.0" encoding="UTF-8"?>
<!--Generator: Apple Native CoreSVG 341-->
<!DOCTYPE svg
PUBLIC "-//W3C//DTD SVG 1.1//EN"
       "http://www.w3.org/Graphics/SVG/1.1/DTD/svg11.dtd">
<svg version="1.1" xmlns="http://www.w3.org/2000/svg" xmlns:xlink="http://www.w3.org/1999/xlink" viewBox="0 0 31.4047 24.0352">
 <g>
  <rect height="24.0352" opacity="0" width="31.4047" x="0" y="0"/>
  <path d="M11.6477 0C13.7922 0.457031 16.8508 1.39453 18.55 1.95703C22.8274 3.39844 24.3391 5.21484 24.3391 9.35156C24.3391 12.3398 22.9563 13.9219 20.8821 13.9219C20.2024 13.9219 19.4524 13.7461 18.6438 13.3594L18.6438 5.89453C18.6438 5.03906 18.55 4.27734 17.718 4.01953C17.0266 3.79688 16.6867 4.39453 16.6867 5.21484L16.6867 24.0117L11.6477 22.418ZM17.6242 20.7422L17.6242 23.6367L27.9367 19.957C29.4719 19.418 30.4328 18.8789 30.7844 18.3984C31.3586 17.6602 31.1008 16.5 28.8742 15.7383C26.5657 14.9414 23.8821 14.6836 21.7258 14.8477C20.3899 14.9531 18.7961 15.3867 17.6242 15.7852L17.6242 18.8789L23.0383 16.9219C23.9524 16.582 25.2414 16.5469 26.0383 16.8164C26.7766 17.0625 26.7063 17.4844 25.7453 17.8477ZM1.86253 20.2266C4.13596 21.0352 7.04221 21.6914 10.6282 20.9062L10.6282 18.3047L8.23753 19.1953C7.24143 19.5469 5.6594 19.6055 5.10862 19.4297C4.31175 19.1602 4.47581 18.6328 5.5305 18.2578L10.6282 16.4414L10.6282 13.5469L3.62034 16.0781C2.68284 16.418 1.74534 16.6875 0.667214 17.4258C-0.51638 18.2344-0.129661 19.5234 1.86253 20.2266Z" fill="white" fill-opacity="0.85"/>
 </g>
</svg>
