<?xml version="1.0" encoding="UTF-8"?>
<!--Generator: Apple Native CoreSVG 341-->
<!DOCTYPE svg
PUBLIC "-//W3C//DTD SVG 1.1//EN"
       "http://www.w3.org/Graphics/SVG/1.1/DTD/svg11.dtd">
<svg version="1.1" xmlns="http://www.w3.org/2000/svg" xmlns:xlink="http://www.w3.org/1999/xlink" viewBox="0 0 17.8828 26.0742">
 <g>
  <rect height="26.0742" opacity="0" width="17.8828" x="0" y="0"/>
  <path d="M14.6484 4.30078L17.1914 4.30078C17.6016 4.30078 17.8828 3.98438 17.8828 3.62109C17.8828 3.25781 17.6016 2.94141 17.1914 2.94141L14.6484 2.94141C14.2383 2.94141 13.957 3.25781 13.957 3.62109C13.957 3.98438 14.2383 4.30078 14.6484 4.30078ZM14.6484 7.59375L17.1914 7.59375C17.6016 7.59375 17.8828 7.27734 17.8828 6.91406C17.8828 6.55078 17.6016 6.23438 17.1914 6.23438L14.6484 6.23438C14.2383 6.23438 13.957 6.55078 13.957 6.91406C13.957 7.27734 14.2383 7.59375 14.6484 7.59375ZM14.6484 10.8867L17.1914 10.8867C17.6016 10.8867 17.8828 10.5703 17.8828 10.207C17.8828 9.84375 17.6016 9.51562 17.1914 9.51562L14.6484 9.51562C14.2383 9.51562 13.957 9.84375 13.957 10.207C13.957 10.5703 14.2383 10.8867 14.6484 10.8867ZM14.6484 14.1797L17.1914 14.1797C17.6016 14.1797 17.8828 13.8633 17.8828 13.5C17.8828 13.125 17.6016 12.8086 17.1914 12.8086L14.6484 12.8086C14.2383 12.8086 13.957 13.125 13.957 13.5C13.957 13.8633 14.2383 14.1797 14.6484 14.1797Z" fill="white" fill-opacity="0.425"/>
  <path d="M8.77734 26.0391C12.1523 26.0391 14.8828 23.2969 14.8828 19.9219C14.8828 18.1406 14.1562 16.582 12.75 15.3164C12.5039 15.0938 12.4453 14.9531 12.4453 14.6016L12.4453 4.00781C12.4453 1.62891 10.957 0 8.77734 0C6.57422 0 5.07422 1.62891 5.07422 4.00781L5.07422 14.6016C5.07422 14.9531 5.02734 15.0938 4.76953 15.3164C3.375 16.582 2.63672 18.1406 2.63672 19.9219C2.63672 23.2969 5.37891 26.0391 8.77734 26.0391ZM8.77734 24.3398C6.32812 24.3398 4.35938 22.3477 4.35938 19.9219C4.35938 18.457 5.05078 17.1328 6.29297 16.3008C6.65625 16.0547 6.79688 15.832 6.79688 15.3516L6.79688 4.07812C6.79688 2.67188 7.60547 1.72266 8.77734 1.72266C9.92578 1.72266 10.7344 2.67188 10.7344 4.07812L10.7344 15.3516C10.7344 15.832 10.875 16.0547 11.2383 16.3008C12.4805 17.1328 13.1719 18.457 13.1719 19.9219C13.1719 22.3477 11.1914 24.3398 8.77734 24.3398Z" fill="white" fill-opacity="0.2125"/>
  <path d="M8.76562 22.7578C10.3359 22.7578 11.6016 21.4922 11.6016 19.9102C11.6016 18.8086 10.9805 17.9062 10.0781 17.4141C9.70312 17.2148 9.57422 17.0742 9.57422 16.5L9.57422 14.332C9.57422 13.7695 9.21094 13.4062 8.76562 13.4062C8.30859 13.4062 7.95703 13.7695 7.95703 14.332L7.95703 16.5C7.95703 17.0742 7.82812 17.2148 7.45312 17.4141C6.55078 17.9062 5.92969 18.8086 5.92969 19.9102C5.92969 21.4922 7.19531 22.7578 8.76562 22.7578Z" fill="white" fill-opacity="0.85"/>
 </g>
</svg>
