<?xml version="1.0" encoding="UTF-8"?>
<!--Generator: Apple Native CoreSVG 341-->
<!DOCTYPE svg
PUBLIC "-//W3C//DTD SVG 1.1//EN"
       "http://www.w3.org/Graphics/SVG/1.1/DTD/svg11.dtd">
<svg version="1.1" xmlns="http://www.w3.org/2000/svg" xmlns:xlink="http://www.w3.org/1999/xlink" viewBox="0 0 29.6484 23.4492">
 <g>
  <rect height="23.4492" opacity="0" width="29.6484" x="0" y="0"/>
  <path d="M3.01172 19.4531L26.2852 19.4531C28.2891 19.4531 29.2969 18.4805 29.2969 16.4414L29.2969 3.01172C29.2969 0.972656 28.2891 0 26.2852 0L3.01172 0C1.01953 0 0 0.972656 0 3.01172L0 16.4414C0 18.4805 1.01953 19.4531 3.01172 19.4531ZM8.75391 23.4258L20.543 23.4258C21.0586 23.4258 21.4922 23.0039 21.4922 22.4766C21.4922 21.9492 21.0586 21.5273 20.543 21.5273L8.75391 21.5273C8.23828 21.5273 7.80469 21.9492 7.80469 22.4766C7.80469 23.0039 8.23828 23.4258 8.75391 23.4258Z" fill="white" fill-opacity="0.2125"/>
  <path d="M10.7109 14.6953L10.7109 4.76953C10.7109 4.13672 11.3789 3.91406 11.8828 4.20703L20.0039 8.98828C20.5781 9.32812 20.6016 10.125 20.0156 10.4648L11.8828 15.2578C11.3789 15.5508 10.7109 15.3281 10.7109 14.6953Z" fill="white" fill-opacity="0.85"/>
 </g>
</svg>
