<?xml version="1.0" encoding="UTF-8"?>
<!--Generator: Apple Native CoreSVG 341-->
<!DOCTYPE svg
PUBLIC "-//W3C//DTD SVG 1.1//EN"
       "http://www.w3.org/Graphics/SVG/1.1/DTD/svg11.dtd">
<svg version="1.1" xmlns="http://www.w3.org/2000/svg" xmlns:xlink="http://www.w3.org/1999/xlink" viewBox="0 0 26.7422 24.293">
 <g>
  <rect height="24.293" opacity="0" width="26.7422" x="0" y="0"/>
  <path d="M21.0469 24.293C22.1484 24.293 23.0391 23.4023 23.0391 22.2891C23.0391 21.1875 22.1484 20.2969 21.0469 20.2969C19.9336 20.2969 19.043 21.1875 19.043 22.2891C19.043 23.4023 19.9336 24.293 21.0469 24.293Z" fill="white" fill-opacity="0.425"/>
  <path d="M13.1953 24.293C14.3086 24.293 15.1992 23.4023 15.1992 22.2891C15.1992 21.1875 14.3086 20.2969 13.1953 20.2969C12.0938 20.2969 11.2031 21.1875 11.2031 22.2891C11.2031 23.4023 12.0938 24.293 13.1953 24.293Z" fill="white" fill-opacity="0.425"/>
  <path d="M5.35547 24.293C6.48047 24.293 7.37109 23.4023 7.37109 22.2891C7.37109 21.1875 6.48047 20.2969 5.35547 20.2969C4.25391 20.2969 3.36328 21.1875 3.36328 22.2891C3.36328 23.4023 4.25391 24.293 5.35547 24.293Z" fill="white" fill-opacity="0.425"/>
  <path d="M13.1953 10.5703C19.3594 10.5703 26.2148 8.35547 26.2148 5.74219C26.2148 3.16406 20.3906 1.06641 13.1953 1.06641C6 1.06641 0.175781 3.16406 0.175781 5.74219C0.175781 8.35547 7.04297 10.5703 13.1953 10.5703ZM4.76953 16.418C5.0625 16.5117 5.25 16.3594 5.25 16.0664L5.25 14.9648C5.25 14.4727 5.64844 14.2148 6.10547 14.3438C8.50781 15.0234 11.2969 15.2227 13.2773 15.2227C15.2812 15.2227 18.0586 15.0234 20.4609 14.3438C20.918 14.2148 21.3164 14.4727 21.3164 14.9648L21.3164 16.0078C21.3164 16.3125 21.5039 16.4531 21.7969 16.3594C24.5977 15.3867 26.3906 13.8633 26.3906 11.9648L26.3906 8.12109C24.5859 10.207 19.1719 11.9414 13.1953 11.9414C7.33594 11.9414 1.80469 10.207 0 8.12109L0 11.9648C0 13.9102 1.86328 15.4453 4.76953 16.418ZM13.1953 5.91797C10.8281 5.91797 9.50391 5.29688 9.50391 4.37109C9.50391 3.46875 10.793 2.82422 13.1953 2.82422C15.6094 2.82422 16.8984 3.46875 16.8984 4.37109C16.8984 5.29688 15.5742 5.91797 13.1953 5.91797ZM13.1953 4.99219C14.6953 4.99219 15.4688 4.71094 15.4688 4.37109C15.4688 4.03125 14.7422 3.73828 13.1953 3.73828C11.6484 3.73828 10.9102 4.03125 10.9102 4.37109C10.9102 4.71094 11.6953 4.99219 13.1953 4.99219ZM9.07031 8.42578C8.39062 8.42578 7.82812 8.15625 7.82812 7.81641C7.82812 7.48828 8.39062 7.21875 9.07031 7.21875C9.75 7.21875 10.3125 7.48828 10.3125 7.81641C10.3125 8.15625 9.75 8.42578 9.07031 8.42578ZM13.1953 8.90625C12.5273 8.90625 11.9648 8.625 11.9648 8.29688C11.9648 7.95703 12.5273 7.67578 13.1953 7.67578C13.875 7.67578 14.4375 7.95703 14.4375 8.29688C14.4375 8.625 13.875 8.90625 13.1953 8.90625ZM17.332 8.42578C16.6523 8.42578 16.0898 8.15625 16.0898 7.81641C16.0898 7.48828 16.6523 7.21875 17.332 7.21875C18.0117 7.21875 18.5742 7.48828 18.5742 7.81641C18.5742 8.15625 18.0117 8.42578 17.332 8.42578Z" fill="white" fill-opacity="0.85"/>
 </g>
</svg>
