<?xml version="1.0" encoding="UTF-8"?>
<!--Generator: Apple Native CoreSVG 341-->
<!DOCTYPE svg
PUBLIC "-//W3C//DTD SVG 1.1//EN"
       "http://www.w3.org/Graphics/SVG/1.1/DTD/svg11.dtd">
<svg version="1.1" xmlns="http://www.w3.org/2000/svg" xmlns:xlink="http://www.w3.org/1999/xlink" viewBox="0 0 26.7422 32.5431">
 <g>
  <rect height="32.5431" opacity="0" width="26.7422" x="0" y="0"/>
  <path d="M13.1953 21.4922C19.3594 21.4922 26.2148 19.2774 26.2148 16.6641C26.2148 14.086 20.3906 11.9883 13.1953 11.9883C6 11.9883 0.175781 14.086 0.175781 16.6641C0.175781 19.2774 7.04297 21.4922 13.1953 21.4922ZM4.76953 27.3399C5.0625 27.4336 5.25 27.2813 5.25 26.9883L5.25 25.8868C5.25 25.3946 5.64844 25.1368 6.10547 25.2657C8.50781 25.9336 11.2969 26.1446 13.2773 26.1446C15.2812 26.1446 18.0586 25.9336 20.4609 25.2657C20.918 25.1368 21.3164 25.3946 21.3164 25.8868L21.3164 26.9297C21.3164 27.2344 21.5039 27.3751 21.7969 27.2813C24.5977 26.3086 26.3906 24.7852 26.3906 22.8868L26.3906 19.043C24.5859 21.129 19.1719 22.8633 13.1953 22.8633C7.33594 22.8633 1.80469 21.129 0 19.043L0 22.8868C0 24.8321 1.86328 26.3672 4.76953 27.3399ZM13.1953 16.8399C10.8281 16.8399 9.50391 16.2188 9.50391 15.293C9.50391 14.3907 10.793 13.7344 13.1953 13.7344C15.6094 13.7344 16.8984 14.3907 16.8984 15.293C16.8984 16.2188 15.5742 16.8399 13.1953 16.8399ZM13.1953 15.9141C14.6953 15.9141 15.4688 15.6329 15.4688 15.293C15.4688 14.9532 14.7422 14.6602 13.1953 14.6602C11.6484 14.6602 10.9102 14.9532 10.9102 15.293C10.9102 15.6329 11.6953 15.9141 13.1953 15.9141ZM9.07031 19.3477C8.39062 19.3477 7.82812 19.0782 7.82812 18.7383C7.82812 18.4102 8.39062 18.129 9.07031 18.129C9.75 18.129 10.3125 18.4102 10.3125 18.7383C10.3125 19.0782 9.75 19.3477 9.07031 19.3477ZM13.1953 19.8282C12.5273 19.8282 11.9648 19.5469 11.9648 19.2188C11.9648 18.879 12.5273 18.5977 13.1953 18.5977C13.875 18.5977 14.4375 18.879 14.4375 19.2188C14.4375 19.5469 13.875 19.8282 13.1953 19.8282ZM17.332 19.3477C16.6523 19.3477 16.0898 19.0782 16.0898 18.7383C16.0898 18.4102 16.6523 18.129 17.332 18.129C18.0117 18.129 18.5742 18.4102 18.5742 18.7383C18.5742 19.0782 18.0117 19.3477 17.332 19.3477Z" fill="white" fill-opacity="0.425"/>
  <path d="M9.38672 7.86334L17.1914 7.86334C17.7305 7.86334 17.9766 7.26568 17.6602 6.73834L13.8984 0.351617C13.6172-0.128851 12.9609-0.105414 12.6914 0.351617L8.90625 6.73834C8.625 7.2188 8.84766 7.86334 9.38672 7.86334Z" fill="white" fill-opacity="0.85"/>
 </g>
</svg>
