<?xml version="1.0" encoding="UTF-8"?>
<!--Generator: Apple Native CoreSVG 341-->
<!DOCTYPE svg
PUBLIC "-//W3C//DTD SVG 1.1//EN"
       "http://www.w3.org/Graphics/SVG/1.1/DTD/svg11.dtd">
<svg version="1.1" xmlns="http://www.w3.org/2000/svg" xmlns:xlink="http://www.w3.org/1999/xlink" viewBox="0 0 26.7422 15.7148">
 <g>
  <rect height="15.7148" opacity="0" width="26.7422" x="0" y="0"/>
  <path d="M13.1953 9.51562C19.3594 9.51562 26.2148 7.30078 26.2148 4.6875C26.2148 2.09766 20.3906 0 13.1953 0C6 0 0.175781 2.09766 0.175781 4.6875C0.175781 7.30078 7.04297 9.51562 13.1953 9.51562ZM4.76953 15.3516C5.0625 15.457 5.25 15.3047 5.25 15.0117L5.25 13.8984C5.25 13.418 5.64844 13.1484 6.10547 13.2773C8.50781 13.957 11.2969 14.168 13.2773 14.168C15.2812 14.168 18.0586 13.957 20.4609 13.2773C20.918 13.1484 21.3164 13.418 21.3164 13.8984L21.3164 14.9531C21.3164 15.2578 21.5039 15.3984 21.7969 15.293C24.5977 14.3203 26.3906 12.8086 26.3906 10.9102L26.3906 7.06641C24.5859 9.14062 19.1719 10.875 13.1953 10.875C7.33594 10.875 1.80469 9.14062 0 7.06641L0 10.9102C0 12.8555 1.86328 14.3789 4.76953 15.3516ZM13.1953 4.86328C10.8281 4.86328 9.50391 4.24219 9.50391 3.31641C9.50391 2.41406 10.793 1.75781 13.1953 1.75781C15.6094 1.75781 16.8984 2.41406 16.8984 3.31641C16.8984 4.24219 15.5742 4.86328 13.1953 4.86328ZM13.1953 3.92578C14.6953 3.92578 15.4688 3.65625 15.4688 3.31641C15.4688 2.97656 14.7422 2.67188 13.1953 2.67188C11.6484 2.67188 10.9102 2.97656 10.9102 3.31641C10.9102 3.65625 11.6953 3.92578 13.1953 3.92578ZM9.07031 7.35938C8.39062 7.35938 7.82812 7.08984 7.82812 6.76172C7.82812 6.42188 8.39062 6.15234 9.07031 6.15234C9.75 6.15234 10.3125 6.42188 10.3125 6.76172C10.3125 7.08984 9.75 7.35938 9.07031 7.35938ZM13.1953 7.83984C12.5273 7.83984 11.9648 7.57031 11.9648 7.23047C11.9648 6.90234 12.5273 6.60938 13.1953 6.60938C13.875 6.60938 14.4375 6.90234 14.4375 7.23047C14.4375 7.57031 13.875 7.83984 13.1953 7.83984ZM17.332 7.35938C16.6523 7.35938 16.0898 7.08984 16.0898 6.76172C16.0898 6.42188 16.6523 6.15234 17.332 6.15234C18.0117 6.15234 18.5742 6.42188 18.5742 6.76172C18.5742 7.08984 18.0117 7.35938 17.332 7.35938Z" fill="white" fill-opacity="0.85"/>
 </g>
</svg>
