<?xml version="1.0" encoding="UTF-8"?>
<!--Generator: Apple Native CoreSVG 341-->
<!DOCTYPE svg
PUBLIC "-//W3C//DTD SVG 1.1//EN"
       "http://www.w3.org/Graphics/SVG/1.1/DTD/svg11.dtd">
<svg version="1.1" xmlns="http://www.w3.org/2000/svg" xmlns:xlink="http://www.w3.org/1999/xlink" viewBox="0 0 21.1523 26.0039">
 <g>
  <rect height="26.0039" opacity="0" width="21.1523" x="0" y="0"/>
  <path d="M20.8008 11.1328L20.8008 20.1562C20.8008 23.3086 19.043 25.0547 15.8906 25.0547L4.89844 25.0547C1.74609 25.0547 0 23.3086 0 20.1562L0 11.1328C0 7.99219 1.74609 6.23438 4.89844 6.23438L9.46875 6.23438L9.46875 12.832L9.53906 14.5781L8.88281 13.8867L7.06641 11.9531C6.90234 11.7656 6.65625 11.6719 6.42188 11.6719C5.92969 11.6719 5.57812 12.0234 5.57812 12.4922C5.57812 12.75 5.68359 12.9375 5.85938 13.1133L9.72656 16.8398C9.96094 17.0742 10.1602 17.1562 10.4062 17.1562C10.6406 17.1562 10.8398 17.0742 11.0742 16.8398L14.9414 13.1133C15.1172 12.9375 15.2227 12.75 15.2227 12.4922C15.2227 12.0234 14.8477 11.6719 14.3672 11.6719C14.1328 11.6719 13.8984 11.7656 13.7344 11.9531L11.918 13.8867L11.2617 14.5781L11.332 12.832L11.332 6.23438L15.8906 6.23438C19.043 6.23438 20.8008 7.99219 20.8008 11.1328Z" fill="white" fill-opacity="0.2125"/>
  <path d="M10.4062 0C10.9102 0 11.332 0.410156 11.332 0.902344L11.332 12.832L11.2617 14.5781L11.918 13.8867L13.7344 11.9531C13.8984 11.7656 14.1328 11.6719 14.3672 11.6719C14.8477 11.6719 15.2227 12.0234 15.2227 12.4922C15.2227 12.75 15.1172 12.9375 14.9414 13.1133L11.0742 16.8398C10.8398 17.0742 10.6406 17.1562 10.4062 17.1562C10.1602 17.1562 9.96094 17.0742 9.72656 16.8398L5.85938 13.1133C5.68359 12.9375 5.57812 12.75 5.57812 12.4922C5.57812 12.0234 5.92969 11.6719 6.42188 11.6719C6.65625 11.6719 6.90234 11.7656 7.06641 11.9531L8.88281 13.8867L9.53906 14.5781L9.46875 12.832L9.46875 0.902344C9.46875 0.410156 9.90234 0 10.4062 0Z" fill="white" fill-opacity="0.85"/>
 </g>
</svg>
