<?xml version="1.0" encoding="UTF-8"?>
<!--Generator: Apple Native CoreSVG 341-->
<!DOCTYPE svg
PUBLIC "-//W3C//DTD SVG 1.1//EN"
       "http://www.w3.org/Graphics/SVG/1.1/DTD/svg11.dtd">
<svg version="1.1" xmlns="http://www.w3.org/2000/svg" xmlns:xlink="http://www.w3.org/1999/xlink" viewBox="0 0 27.1875 26.2383">
 <g>
  <rect height="26.2383" opacity="0" width="27.1875" x="0" y="0"/>
  <path d="M22.6758 13.6289C22.8984 13.6289 23.0508 13.4766 23.0742 13.2422C23.4609 10.1133 23.6133 10.0312 26.7891 9.51562C27.0352 9.48047 27.1875 9.35156 27.1875 9.12891C27.1875 8.90625 27.0352 8.76562 26.8359 8.73047C23.6367 8.12109 23.4609 8.13281 23.0742 5.00391C23.0508 4.76953 22.8984 4.61719 22.6758 4.61719C22.4648 4.61719 22.3125 4.76953 22.2773 4.99219C21.8789 8.16797 21.7617 8.27344 18.5156 8.73047C18.3164 8.75391 18.1641 8.90625 18.1641 9.12891C18.1641 9.33984 18.3164 9.48047 18.5156 9.51562C21.7617 10.1367 21.8672 10.1367 22.2773 13.2656C22.3125 13.4766 22.4648 13.6289 22.6758 13.6289ZM17.0742 5.69531C17.2148 5.69531 17.2852 5.61328 17.3086 5.48438C17.6719 3.52734 17.6602 3.48047 19.6992 3.09375C19.8281 3.07031 19.9219 2.98828 19.9219 2.84766C19.9219 2.70703 19.8281 2.625 19.6992 2.60156C17.6602 2.19141 17.7305 2.14453 17.3086 0.210938C17.2852 0.0820312 17.2148 0 17.0742 0C16.9336 0 16.8516 0.0820312 16.8281 0.210938C16.418 2.14453 16.4883 2.19141 14.4492 2.60156C14.3086 2.625 14.2266 2.70703 14.2266 2.84766C14.2266 2.98828 14.3086 3.07031 14.4492 3.09375C16.4883 3.50391 16.4648 3.52734 16.8281 5.48438C16.8516 5.61328 16.9336 5.69531 17.0742 5.69531Z" fill="white" fill-opacity="0.425"/>
  <path d="M13.8516 24.3398C18.0586 24.3398 21.4688 21.7969 22.9688 18.5742C23.2969 17.8828 22.875 17.4375 22.2305 17.6367C21.5156 17.8828 20.332 18.1055 19.2422 18.1055C13.4531 18.1055 10.1367 14.7891 10.1367 8.98828C10.1367 7.91016 10.3828 6.66797 10.7227 5.8125C11.0156 5.07422 10.5117 4.65234 9.82031 4.95703C6.36328 6.45703 3.73828 10.0078 3.73828 14.2266C3.73828 19.8164 8.26172 24.3398 13.8516 24.3398Z" fill="white" fill-opacity="0.85"/>
 </g>
</svg>
