<?xml version="1.0" encoding="UTF-8"?>
<!--Generator: Apple Native CoreSVG 341-->
<!DOCTYPE svg
PUBLIC "-//W3C//DTD SVG 1.1//EN"
       "http://www.w3.org/Graphics/SVG/1.1/DTD/svg11.dtd">
<svg version="1.1" xmlns="http://www.w3.org/2000/svg" xmlns:xlink="http://www.w3.org/1999/xlink" viewBox="0 0 27.5977 26.8477">
 <g>
  <rect height="26.8477" opacity="0" width="27.5977" x="0" y="0"/>
  <path d="M21.9609 24.4453L6.71484 24.4453C6.30469 24.4453 5.97656 24.7617 5.97656 25.1836C5.97656 25.6055 6.30469 25.9336 6.71484 25.9336L21.9609 25.9336C22.3711 25.9336 22.6992 25.6055 22.6992 25.1836C22.6992 24.7617 22.3711 24.4453 21.9609 24.4453Z" fill="white" fill-opacity="0.425"/>
  <path d="M21.9609 20.4727L6.71484 20.4727C6.30469 20.4727 5.97656 20.7891 5.97656 21.2109C5.97656 21.6328 6.30469 21.9492 6.71484 21.9492L21.9609 21.9492C22.3711 21.9492 22.6992 21.6328 22.6992 21.2109C22.6992 20.7891 22.3711 20.4727 21.9609 20.4727Z" fill="white" fill-opacity="0.425"/>
  <path d="M6.35156 17.7539L20.8945 17.7539C24.7383 17.7539 27.5977 14.8359 27.5977 11.2266C27.5977 7.48828 24.5508 4.75781 20.5781 4.75781C19.1133 1.86328 16.3945 0 13.0078 0C8.60156 0 4.96875 3.45703 4.58203 7.80469C2.46094 8.42578 0.84375 10.2656 0.84375 12.7383C0.84375 15.5156 2.85938 17.7539 6.35156 17.7539Z" fill="white" fill-opacity="0.85"/>
 </g>
</svg>
