<?xml version="1.0" encoding="UTF-8"?>
<!--Generator: Apple Native CoreSVG 341-->
<!DOCTYPE svg
PUBLIC "-//W3C//DTD SVG 1.1//EN"
       "http://www.w3.org/Graphics/SVG/1.1/DTD/svg11.dtd">
<svg version="1.1" xmlns="http://www.w3.org/2000/svg" xmlns:xlink="http://www.w3.org/1999/xlink" viewBox="0 0 27.5977 27.0187">
 <g>
  <rect height="27.0187" opacity="0" width="27.5977" x="0" y="0"/>
  <path d="M18.7031 26.6519L22.1719 20.6519C22.3711 20.3004 22.2656 19.9019 21.9258 19.7027C21.5977 19.4918 21.1758 19.5972 20.9648 19.9605L17.5195 25.9371C17.3203 26.2886 17.4258 26.6988 17.7656 26.9097C18.1055 27.1089 18.5039 27.0035 18.7031 26.6519Z" fill="white" fill-opacity="0.425"/>
  <path d="M15.9844 23.3121L17.5078 20.6636C17.7188 20.3121 17.6016 19.9019 17.25 19.691C16.8984 19.4918 16.5 19.5972 16.2891 19.9605L14.7539 22.6324C14.5547 22.9605 14.6484 23.3707 15.0117 23.5816C15.3633 23.7808 15.7852 23.6519 15.9844 23.3121Z" fill="white" fill-opacity="0.425"/>
  <path d="M9.38672 26.6636L12.8438 20.6636C13.043 20.3121 12.9492 19.9136 12.6094 19.7144C12.2695 19.5035 11.8359 19.6089 11.6367 19.9722L8.20312 25.9488C8.00391 26.3004 8.09766 26.7105 8.44922 26.9214C8.78906 27.1207 9.1875 27.0035 9.38672 26.6636Z" fill="white" fill-opacity="0.425"/>
  <path d="M6.65625 23.3238L8.17969 20.6754C8.40234 20.3238 8.28516 19.9136 7.93359 19.7027C7.58203 19.5035 7.18359 19.6089 6.96094 19.9722L5.42578 22.6441C5.22656 22.9722 5.33203 23.3824 5.69531 23.5933C6.03516 23.7925 6.45703 23.6636 6.65625 23.3238Z" fill="white" fill-opacity="0.425"/>
  <path d="M6.35156 17.8394L20.8945 17.8394C24.7383 17.8394 27.5977 14.9214 27.5977 11.3121C27.5977 7.57379 24.5508 4.84332 20.5781 4.84332C19.1133 1.94879 16.3945 0.0855079 13.0078 0.0855079C8.60156 0.0855079 4.96875 3.54254 4.58203 7.8902C2.46094 8.51129 0.84375 10.3511 0.84375 12.8238C0.84375 15.6011 2.85938 17.8394 6.35156 17.8394ZM6.32812 15.9644C3.92578 15.9644 2.71875 14.6168 2.71875 12.8824C2.71875 11.4761 3.53906 10.2105 5.53125 9.68316C6.17578 9.50738 6.41016 9.2027 6.46875 8.54645C6.73828 4.71441 9.60938 1.96051 13.0078 1.96051C15.6445 1.96051 17.7188 3.41363 18.9844 6.00348C19.2539 6.5777 19.6055 6.77691 20.2969 6.77691C23.7656 6.77691 25.7227 8.86285 25.7227 11.3589C25.7227 13.9136 23.6836 15.9644 21.0117 15.9644Z" fill="white" fill-opacity="0.85"/>
 </g>
</svg>
