<?xml version="1.0" encoding="UTF-8"?>
<!--Generator: Apple Native CoreSVG 341-->
<!DOCTYPE svg
PUBLIC "-//W3C//DTD SVG 1.1//EN"
       "http://www.w3.org/Graphics/SVG/1.1/DTD/svg11.dtd">
<svg version="1.1" xmlns="http://www.w3.org/2000/svg" xmlns:xlink="http://www.w3.org/1999/xlink" viewBox="0 0 27.5977 27.0187">
 <g>
  <rect height="27.0187" opacity="0" width="27.5977" x="0" y="0"/>
  <path d="M18.2227 26.6636L21.6914 20.6636C21.8906 20.3121 21.7852 19.8902 21.4336 19.7144C21.0938 19.5269 20.6836 19.6089 20.4844 19.9722L17.0391 25.9488C16.8281 26.3004 16.9336 26.7105 17.2734 26.9214C17.6016 27.1207 18.0352 27.0035 18.2227 26.6636Z" fill="white" fill-opacity="0.425"/>
  <path d="M13.5938 26.6519L17.0273 20.6871C17.2383 20.3121 17.1328 19.9136 16.7812 19.7144C16.418 19.5035 16.0195 19.6089 15.8086 19.9839L12.3633 25.9722C12.1758 26.3004 12.2578 26.7105 12.6211 26.9214C12.9727 27.1207 13.3945 27.0035 13.5938 26.6519Z" fill="white" fill-opacity="0.425"/>
  <path d="M8.92969 26.6519L12.3633 20.6871C12.5742 20.3121 12.4688 19.9136 12.1172 19.7144C11.7539 19.5035 11.3555 19.6089 11.1445 19.9839L7.69922 25.9722C7.51172 26.3004 7.59375 26.7105 7.95703 26.9214C8.30859 27.1207 8.73047 27.0035 8.92969 26.6519Z" fill="white" fill-opacity="0.425"/>
  <path d="M4.25391 26.6519L7.69922 20.6871C7.91016 20.3121 7.79297 19.9136 7.44141 19.7144C7.08984 19.5035 6.69141 19.6089 6.48047 19.9839L3.02344 25.9722C2.83594 26.3004 2.92969 26.7105 3.28125 26.9214C3.63281 27.1207 4.05469 27.0035 4.25391 26.6519Z" fill="white" fill-opacity="0.425"/>
  <path d="M6.35156 17.8394L20.8945 17.8394C24.7383 17.8394 27.5977 14.9214 27.5977 11.3121C27.5977 7.57379 24.5508 4.84332 20.5781 4.84332C19.1133 1.94879 16.3945 0.0855079 13.0078 0.0855079C8.60156 0.0855079 4.96875 3.54254 4.58203 7.8902C2.46094 8.51129 0.84375 10.3511 0.84375 12.8238C0.84375 15.6011 2.85938 17.8394 6.35156 17.8394Z" fill="white" fill-opacity="0.85"/>
 </g>
</svg>
